<svg width="74" height="50" viewBox="0 0 74 50" fill="none" xmlns="http://www.w3.org/2000/svg">
<path d="M67.8333 15.7499V9.58325H61.6667V15.7499H55.5V21.9166H61.6667V28.0833H67.8333V21.9166H74V15.7499H67.8333ZM24.6667 24.9999C31.4808 24.9999 37 19.4808 37 12.6666C37 5.85242 31.4808 0.333252 24.6667 0.333252C17.8525 0.333252 12.3333 5.85242 12.3333 12.6666C12.3333 19.4808 17.8525 24.9999 24.6667 24.9999ZM24.6667 28.0833C16.4342 28.0833 0 32.2149 0 40.4166V49.6666H49.3333V40.4166C49.3333 32.2149 32.8992 28.0833 24.6667 28.0833ZM38.5725 0.487419C41.4092 3.75575 43.1667 8.01075 43.1667 12.6666C43.1667 17.3224 41.4092 21.5774 38.5725 24.8458C44.6158 24.0749 49.3333 18.9566 49.3333 12.6666C49.3333 6.37659 44.6158 1.25825 38.5725 0.487419ZM50.9675 30.6424C53.7117 33.2016 55.5 36.4083 55.5 40.4166V49.6666H61.6667V40.4166C61.6667 35.9458 56.7642 32.6774 50.9675 30.6424Z" fill="white"/>
</svg>
