<svg width="64" height="62" viewBox="0 0 64 62" fill="none" xmlns="http://www.w3.org/2000/svg">
<path d="M43.3334 6.33329C43.3334 2.91079 46.0775 0.166626 49.5 0.166626C52.9225 0.166626 55.6667 2.91079 55.6667 6.33329C55.6667 9.75579 52.9225 12.5 49.5 12.5C46.0775 12.5 43.3334 9.75579 43.3334 6.33329ZM55.6667 61.8333V43.3333H63.375L55.5434 19.8075C55.1309 18.5794 54.3439 17.5115 53.2931 16.7538C52.2423 15.9961 50.9805 15.5868 49.685 15.5833H49.315C48.0184 15.5821 46.7544 15.9897 45.7027 16.748C44.651 17.5063 43.8651 18.5769 43.4567 19.8075L40.805 27.7625C44.135 29.6125 46.4167 33.0966 46.4167 37.1666V61.8333H55.6667ZM32.5417 29.4583C35.1009 29.4583 37.1667 27.3925 37.1667 24.8333C37.1667 22.2741 35.1009 20.2083 32.5417 20.2083C29.9825 20.2083 27.9167 22.2741 27.9167 24.8333C27.9167 27.3925 29.9825 29.4583 32.5417 29.4583ZM10.9584 12.5C14.3809 12.5 17.125 9.75579 17.125 6.33329C17.125 2.91079 14.3809 0.166626 10.9584 0.166626C7.53585 0.166626 4.79169 2.91079 4.79169 6.33329C4.79169 9.75579 7.53585 12.5 10.9584 12.5ZM17.125 61.8333V40.25H21.75V21.75C21.75 18.3583 18.975 15.5833 15.5834 15.5833H6.33335C2.94169 15.5833 0.166687 18.3583 0.166687 21.75V40.25H4.79169V61.8333H17.125ZM37.1667 61.8333V49.5H40.25V37.1666C40.25 34.6383 38.1534 32.5416 35.625 32.5416H29.4584C26.93 32.5416 24.8334 34.6383 24.8334 37.1666V49.5H27.9167V61.8333H37.1667Z" fill="white"/>
</svg>
