<svg width="63" height="63" viewBox="0 0 63 63" fill="none" xmlns="http://www.w3.org/2000/svg">
<rect x="1" y="1" width="61" height="61" rx="4" fill="white" stroke="black" stroke-width="2"/>
<path d="M25.66 40.568L21.632 45.052V58.2H4V5H21.632V24.304L39.112 5H58.644L37.364 28.408L59.708 58.2H38.96L25.66 40.568Z" fill="black"/>
<path d="M10.876 58C10.708 58 10.624 57.916 10.624 57.748V54.184C10.624 54.016 10.708 53.932 10.876 53.932H12.322C12.844 53.932 13.228 54.056 13.474 54.304C13.722 54.55 13.846 54.934 13.846 55.456V56.476C13.846 56.998 13.723 57.383 13.477 57.631C13.233 57.877 12.848 58 12.322 58H10.876ZM11.128 57.496H12.322C12.578 57.496 12.78 57.465 12.928 57.403C13.078 57.339 13.184 57.233 13.246 57.085C13.31 56.935 13.342 56.732 13.342 56.476V55.456C13.342 55.202 13.31 55.001 13.246 54.853C13.184 54.703 13.078 54.596 12.928 54.532C12.78 54.468 12.578 54.436 12.322 54.436H11.128V57.496ZM15.3082 56.686V56.83C15.3082 57.088 15.3552 57.264 15.4492 57.358C15.5432 57.45 15.7202 57.496 15.9802 57.496H16.4722C16.6762 57.496 16.8272 57.477 16.9252 57.439C17.0232 57.401 17.0882 57.334 17.1202 57.238C17.1422 57.162 17.1722 57.104 17.2102 57.064C17.2502 57.024 17.3102 57.004 17.3902 57.004C17.4742 57.004 17.5382 57.026 17.5822 57.07C17.6262 57.114 17.6402 57.178 17.6242 57.262C17.5802 57.51 17.4622 57.695 17.2702 57.817C17.0782 57.939 16.8122 58 16.4722 58H15.9802C15.5822 58 15.2862 57.904 15.0922 57.712C14.9002 57.52 14.8042 57.226 14.8042 56.83V56.134C14.8042 55.728 14.9002 55.43 15.0922 55.24C15.2862 55.048 15.5822 54.954 15.9802 54.958H16.4722C16.8722 54.958 17.1682 55.054 17.3602 55.246C17.5522 55.436 17.6482 55.732 17.6482 56.134V56.434C17.6482 56.602 17.5642 56.686 17.3962 56.686H15.3082ZM15.9802 55.462C15.7202 55.458 15.5432 55.503 15.4492 55.597C15.3552 55.691 15.3082 55.87 15.3082 56.134V56.182H17.1442V56.134C17.1442 55.872 17.0972 55.695 17.0032 55.603C16.9112 55.509 16.7342 55.462 16.4722 55.462H15.9802ZM19.465 58C19.211 58 19.01 57.948 18.862 57.844C18.714 57.738 18.619 57.58 18.577 57.37C18.563 57.286 18.579 57.22 18.625 57.172C18.673 57.124 18.739 57.1 18.823 57.1C18.905 57.1 18.964 57.121 19 57.163C19.038 57.203 19.069 57.264 19.093 57.346C19.117 57.406 19.157 57.446 19.213 57.466C19.271 57.486 19.355 57.496 19.465 57.496H20.449C20.605 57.496 20.71 57.471 20.764 57.421C20.818 57.369 20.845 57.262 20.845 57.1C20.845 56.94 20.818 56.834 20.764 56.782C20.71 56.73 20.605 56.704 20.449 56.704H19.483C19.195 56.704 18.978 56.631 18.832 56.485C18.686 56.339 18.613 56.122 18.613 55.834C18.613 55.54 18.684 55.321 18.826 55.177C18.97 55.031 19.189 54.958 19.483 54.958H20.419C20.889 54.958 21.167 55.156 21.253 55.552C21.269 55.636 21.253 55.701 21.205 55.747C21.157 55.793 21.091 55.816 21.007 55.816C20.929 55.816 20.871 55.796 20.833 55.756C20.795 55.714 20.765 55.656 20.743 55.582C20.719 55.534 20.682 55.502 20.632 55.486C20.584 55.47 20.513 55.462 20.419 55.462H19.483C19.331 55.462 19.232 55.485 19.186 55.531C19.14 55.577 19.117 55.678 19.117 55.834C19.117 55.978 19.141 56.075 19.189 56.125C19.239 56.175 19.337 56.2 19.483 56.2H20.449C20.749 56.2 20.974 56.275 21.124 56.425C21.274 56.575 21.349 56.8 21.349 57.1C21.349 57.402 21.274 57.628 21.124 57.778C20.974 57.926 20.749 58 20.449 58H19.465ZM38.652 56.686V56.83C38.652 57.088 38.699 57.264 38.793 57.358C38.887 57.45 39.064 57.496 39.324 57.496H39.816C40.02 57.496 40.171 57.477 40.269 57.439C40.367 57.401 40.432 57.334 40.464 57.238C40.486 57.162 40.516 57.104 40.554 57.064C40.594 57.024 40.654 57.004 40.734 57.004C40.818 57.004 40.882 57.026 40.926 57.07C40.97 57.114 40.984 57.178 40.968 57.262C40.924 57.51 40.806 57.695 40.614 57.817C40.422 57.939 40.156 58 39.816 58H39.324C38.926 58 38.63 57.904 38.436 57.712C38.244 57.52 38.148 57.226 38.148 56.83V56.134C38.148 55.728 38.244 55.43 38.436 55.24C38.63 55.048 38.926 54.954 39.324 54.958H39.816C40.216 54.958 40.512 55.054 40.704 55.246C40.896 55.436 40.992 55.732 40.992 56.134V56.434C40.992 56.602 40.908 56.686 40.74 56.686H38.652ZM39.324 55.462C39.064 55.458 38.887 55.503 38.793 55.597C38.699 55.691 38.652 55.87 38.652 56.134V56.182H40.488V56.134C40.488 55.872 40.441 55.695 40.347 55.603C40.255 55.509 40.078 55.462 39.816 55.462H39.324ZM43.1655 57.814C43.1395 57.876 43.1025 57.923 43.0545 57.955C43.0085 57.985 42.9495 58 42.8775 58C42.7515 58 42.6615 57.934 42.6075 57.802L41.5875 55.318C41.5175 55.158 41.5615 55.048 41.7195 54.988C41.8695 54.918 41.9795 54.962 42.0495 55.12L43.0035 57.448H42.7695L43.8135 55.108C43.8475 55.042 43.8935 54.997 43.9515 54.973C44.0115 54.949 44.0775 54.954 44.1495 54.988C44.2975 55.058 44.3375 55.17 44.2695 55.324L43.1655 57.814Z" fill="white"/>
<path d="M22.5869 54.466C22.3969 54.466 22.3019 54.37 22.3019 54.178V54.001C22.3019 53.813 22.3969 53.719 22.5869 53.719H22.7609C22.9429 53.719 23.0339 53.813 23.0339 54.001V54.178C23.0339 54.37 22.9429 54.466 22.7609 54.466H22.5869ZM22.6709 58C22.5029 58 22.4189 57.916 22.4189 57.748V55.21C22.4189 55.042 22.5029 54.958 22.6709 54.958C22.8389 54.958 22.9229 55.042 22.9229 55.21V57.748C22.9229 57.916 22.8389 58 22.6709 58ZM24.8909 59.2C24.6489 59.2 24.4579 59.151 24.3179 59.053C24.1799 58.955 24.0909 58.806 24.0509 58.606C24.0369 58.522 24.0519 58.456 24.0959 58.408C24.1399 58.36 24.2069 58.336 24.2969 58.336C24.3729 58.336 24.4279 58.356 24.4619 58.396C24.4979 58.438 24.5289 58.5 24.5549 58.582C24.5789 58.626 24.6159 58.656 24.6659 58.672C24.7179 58.688 24.7929 58.696 24.8909 58.696H26.0069C26.1569 58.696 26.2539 58.672 26.2979 58.624C26.3439 58.578 26.3669 58.482 26.3669 58.336V57.637C26.2589 57.755 26.1249 57.845 25.9649 57.907C25.8069 57.969 25.6289 58 25.4309 58H25.2029C24.8049 58 24.5089 57.904 24.3149 57.712C24.1229 57.52 24.0269 57.226 24.0269 56.83V56.134C24.0269 55.732 24.1219 55.436 24.3119 55.246C24.5039 55.054 24.8009 54.958 25.2029 54.958H25.6949C25.8369 54.958 25.9639 54.979 26.0759 55.021C26.1899 55.063 26.2869 55.127 26.3669 55.213V55.21C26.3669 55.042 26.4509 54.958 26.6189 54.958C26.7869 54.958 26.8709 55.042 26.8709 55.21V58.336C26.8709 58.63 26.7999 58.847 26.6579 58.987C26.5179 59.129 26.3009 59.2 26.0069 59.2H24.8909ZM25.2029 57.496H25.4309C25.6949 57.496 25.9169 57.463 26.0969 57.397C26.2769 57.331 26.3669 57.226 26.3669 57.082V55.882C26.3669 55.72 26.3079 55.61 26.1899 55.552C26.0739 55.492 25.9089 55.462 25.6949 55.462H25.2029C24.9449 55.462 24.7679 55.508 24.6719 55.6C24.5779 55.692 24.5309 55.87 24.5309 56.134V56.83C24.5309 57.084 24.5779 57.259 24.6719 57.355C24.7659 57.449 24.9429 57.496 25.2029 57.496ZM28.3135 58C28.1455 58 28.0615 57.916 28.0615 57.748V55.21C28.0615 55.042 28.1455 54.958 28.3135 54.958C28.4815 54.958 28.5655 55.042 28.5655 55.21V55.309C28.7775 55.075 29.0895 54.958 29.5015 54.958H29.6695C30.0695 54.958 30.3655 55.054 30.5575 55.246C30.7495 55.438 30.8455 55.734 30.8455 56.134V57.748C30.8455 57.916 30.7615 58 30.5935 58C30.4255 58 30.3415 57.916 30.3415 57.748V56.134C30.3415 55.872 30.2935 55.695 30.1975 55.603C30.1035 55.509 29.9275 55.462 29.6695 55.462H29.5015C29.2615 55.462 29.0525 55.49 28.8745 55.546C28.6965 55.6 28.5935 55.686 28.5655 55.804V57.748C28.5655 57.916 28.4815 58 28.3135 58ZM31.8842 58.918C31.7882 58.918 31.7172 58.888 31.6712 58.828C31.6252 58.768 31.6142 58.69 31.6382 58.594L32.8682 53.818C32.9102 53.686 32.9922 53.62 33.1142 53.62C33.2102 53.62 33.2812 53.651 33.3272 53.713C33.3752 53.773 33.3842 53.85 33.3542 53.944L32.1302 58.72C32.0942 58.852 32.0122 58.918 31.8842 58.918ZM34.2198 58C34.0518 58 33.9678 57.916 33.9678 57.748V54.184C33.9678 54.016 34.0518 53.932 34.2198 53.932H35.6658C36.1878 53.932 36.5718 54.056 36.8178 54.304C37.0658 54.55 37.1898 54.934 37.1898 55.456V56.476C37.1898 56.998 37.0668 57.383 36.8208 57.631C36.5768 57.877 36.1918 58 35.6658 58H34.2198ZM34.4718 57.496H35.6658C35.9218 57.496 36.1238 57.465 36.2718 57.403C36.4218 57.339 36.5278 57.233 36.5898 57.085C36.6538 56.935 36.6858 56.732 36.6858 56.476V55.456C36.6858 55.202 36.6538 55.001 36.5898 54.853C36.5278 54.703 36.4218 54.596 36.2718 54.532C36.1238 54.468 35.9218 54.436 35.6658 54.436H34.4718V57.496Z" fill="black"/>
</svg>
